{"title":"2pac - All About U feat. Top Dogg.avi","uid":13938702,"size":104867840,"categoryP":"video","categoryS":"music_videos","magnet":"?xt=urn:btih:70328030e5bad689ad7dee1dbdd3ab8613ac1201&amp;dn=2pac+-+All+About+U+feat.+Top+Dogg.avi&amp;tr=udp%3A%2F%2Ftracker.leechers-paradise.org%3A6969&amp;tr=udp%3A%2F%2Fzer0day.ch%3A1337&amp;tr=udp%3A%2F%2Fopen.demonii.com%3A1337&amp;tr=udp%3A%2F%2Ftracker.coppersurfer.tk%3A6969&amp;tr=udp%3A%2F%2Fexodus.desync.com%3A6969","seeders":0,"leechers":2,"uploader":".45cal","files":1,"time":1458448932,"description":"General\r\n\r\nComplete name : 2pac - All About U feat. Top Dogg.avi\r\nFormat : AVI\r\nFormat/Info : Audio Video Interleave\r\nFile size : 100 MiB\r\nDuration : 5mn 46s\r\nOverall bit rate mode : Variable\r\nOverall bit rate : 2 425 Kbps\r\nWriting application : VirtualDubMod 1.5.4.1 (build 2178/release)\r\nWriting library : VirtualDubMod build 2178/release\r\n\r\nVideo\r\n\r\nID : 0\r\nFormat : MPEG-4 Visual\r\nFormat profile : Advanced   \r\nFormat settings, BVOP : 1\r\nFormat settings, QPel : No\r\nFormat settings, GMC : No warppoints\r\nFormat settings, Matrix : Custom\r\nCodec ID : XVID\r\nCodec ID/Hint : XviD\r\nDuration : 5mn 46s\r\nBit rate : 2 195 Kbps\r\nWidth : 512 pixels\r\nHeight : 384 pixels\r\nDisplay aspect ratio : 4:3\r\nFrame rate : 23.976 fps\r\nColor space : YUV\r\nChroma subsampling : 4:2:0\r\nBit depth : 8 bits\r\nScan type : Progressive\r\nCompression mode : Lossy\r\nBits/(Pixel*Frame) : 0.466\r\nStream size : 90.5 MiB (91%)\r\nWriting library : XviD 1.2.0SMP (UTC 2006-01-08)\r\n\r\nAudio\r\n\r\nID : 1\r\nFormat : MPEG Audio\r\nFormat version : Version 1\r\nFormat profile : Layer 3\r\nMode : Joint stereo\r\nMode extension : MS Stereo\r\nCodec ID : 55\r\nCodec ID/Hint : MP3\r\nDuration : 5mn 45s\r\nBit rate mode : Variable\r\nBit rate : 224 Kbps\r\nChannel(s) : 2 channels\r\nSampling rate : 48.0 KHz\r\nCompression mode : Lossy\r\nStream size : 8.94 MiB (9%)\r\nAlignment : Aligned on interleaves\r\nInterleave, duration : 24 ms (0.58 video frame)\r\nInterleave, preload duratio : 535 ms\r\nWriting library : LAME3.97b\r\nEncoding settings : -m j -V 4 -q 2 -lowpass 19.4 --abr 224","torrent":{"xt":"urn:btih:70328030e5bad689ad7dee1dbdd3ab8613ac1201","amp;dn":"2pac+-+All+About+U+feat.+Top+Dogg.avi","amp;tr":["udp%3A%2F%2Ftracker.leechers-paradise.org%3A6969","udp%3A%2F%2Fzer0day.ch%3A1337","udp%3A%2F%2Fopen.demonii.com%3A1337","udp%3A%2F%2Ftracker.coppersurfer.tk%3A6969","udp%3A%2F%2Fexodus.desync.com%3A6969"],"infoHash":"70328030e5bad689ad7dee1dbdd3ab8613ac1201","infoHashBuffer":{"type":"Buffer","data":[112,50,128,48,229,186,214,137,173,125,238,29,189,211,171,134,19,172,18,1]},"announce":[],"urlList":[]}}